M48
; DRILL file {KiCad (6.0.5)} date Thu Jun 30 14:49:22 2022
; FORMAT={-:-/ absolute / inch / decimal}
; #@! TF.CreationDate,2022-06-30T14:49:22+05:30
; #@! TF.GenerationSoftware,Kicad,Pcbnew,(6.0.5)
; #@! TF.FileFunction,Plated,1,2,PTH
FMAT,2
INCH
; #@! TA.AperFunction,Plated,PTH,ViaDrill
T1C0.0157
; #@! TA.AperFunction,Plated,PTH,ComponentDrill
T2C0.0315
; #@! TA.AperFunction,Plated,PTH,ComponentDrill
T3C0.0358
; #@! TA.AperFunction,Plated,PTH,ComponentDrill
T4C0.0394
; #@! TA.AperFunction,Plated,PTH,ComponentDrill
T5C0.0433
%
G90
G05
T1
X3.6299Y-2.0102
X3.6615Y-2.358
X3.776Y-1.924
X3.7836Y-1.7296
X3.8945Y-1.8385
X3.944Y-1.89
X3.9973Y-1.638
X3.9973Y-1.776
X3.9973Y-1.8166
X4.0543Y-1.56
X4.1105Y-1.7785
X4.144Y-1.5315
X4.144Y-1.6101
X4.1453Y-1.7033
X4.74Y-2.33
X5.1135Y-1.622
T2
X3.55Y-1.816
X3.55Y-2.116
X3.552Y-1.376
X3.552Y-1.676
X4.726Y-1.712
X4.726Y-1.848
X4.726Y-1.992
X4.728Y-2.122
X5.026Y-1.712
X5.026Y-1.848
X5.026Y-1.992
X5.028Y-2.122
X5.142Y-1.748
X5.142Y-2.048
T3
X4.9024Y-1.3628
X5.0008Y-1.3628
X5.0992Y-1.3628
X5.1976Y-1.3628
T4
X3.69Y-1.43
X3.69Y-1.53
X3.69Y-1.63
X3.69Y-1.73
X3.69Y-1.83
X3.69Y-1.93
X3.69Y-2.03
X3.69Y-2.13
X4.59Y-1.43
X4.59Y-1.53
X4.59Y-1.63
X4.59Y-1.73
X4.59Y-1.83
X4.59Y-1.93
X4.59Y-2.03
X4.59Y-2.13
X4.7834Y-1.57
X4.8834Y-1.57
X4.9804Y-2.31
X4.9834Y-1.57
X5.0804Y-2.31
X5.1804Y-2.31
X5.2804Y-2.31
X5.32Y-1.57
T5
X3.822Y-1.4614
X3.822Y-1.6386
X3.822Y-1.8514
X3.822Y-2.0286
X3.822Y-2.1728
X3.822Y-2.35
X4.078Y-1.4614
X4.078Y-1.6386
X4.078Y-1.8514
X4.078Y-2.0286
X4.078Y-2.1728
X4.078Y-2.35
X4.212Y-2.174
X4.212Y-2.3512
X4.212Y-1.4614
X4.212Y-1.6386
X4.212Y-1.8514
X4.212Y-2.0286
X4.4679Y-2.174
X4.4679Y-2.3512
X4.468Y-1.4614
X4.468Y-1.6386
X4.468Y-1.8514
X4.468Y-2.0286
T0
M30
