%TF.GenerationSoftware,KiCad,Pcbnew,(6.0.5)*%
%TF.CreationDate,2022-06-30T14:49:24+05:30*%
%TF.ProjectId,D1 mini 4 button remote,4431206d-696e-4692-9034-20627574746f,rev?*%
%TF.SameCoordinates,Original*%
%TF.FileFunction,Soldermask,Bot*%
%TF.FilePolarity,Negative*%
%FSLAX46Y46*%
G04 Gerber Fmt 4.6, Leading zero omitted, Abs format (unit mm)*
G04 Created by KiCad (PCBNEW (6.0.5)) date 2022-06-30 14:49:24*
%MOMM*%
%LPD*%
G01*
G04 APERTURE LIST*
%ADD10O,1.600000X1.600000*%
%ADD11C,1.600000*%
%ADD12C,2.000000*%
%ADD13R,1.700000X1.700000*%
%ADD14O,1.700000X1.700000*%
%ADD15R,1.416000X1.416000*%
%ADD16C,1.416000*%
%ADD17R,2.000000X2.000000*%
%ADD18O,2.000000X1.600000*%
G04 APERTURE END LIST*
D10*
%TO.C,R7*%
X130606800Y-44399200D03*
D11*
X130606800Y-52019200D03*
%TD*%
D12*
%TO.C,SW6*%
X113484800Y-55219600D03*
X106984800Y-55219600D03*
X113484800Y-59719600D03*
X106984800Y-59719600D03*
%TD*%
%TO.C,SW5*%
X97080000Y-59690000D03*
X103580000Y-59690000D03*
X97080000Y-55190000D03*
X103580000Y-55190000D03*
%TD*%
D11*
%TO.C,R6*%
X120091200Y-53898800D03*
D10*
X127711200Y-53898800D03*
%TD*%
D13*
%TO.C,J3*%
X126578600Y-39878000D03*
D14*
X124038600Y-39878000D03*
X121498600Y-39878000D03*
%TD*%
D12*
%TO.C,SW3*%
X103580000Y-47026000D03*
X97080000Y-47026000D03*
X103580000Y-51526000D03*
X97080000Y-51526000D03*
%TD*%
D11*
%TO.C,R5*%
X120040400Y-50596800D03*
D10*
X127660400Y-50596800D03*
%TD*%
D12*
%TO.C,SW1*%
X103580000Y-37120000D03*
X97080000Y-37120000D03*
X97080000Y-41620000D03*
X103580000Y-41620000D03*
%TD*%
D13*
%TO.C,J2*%
X135128000Y-39878000D03*
%TD*%
D12*
%TO.C,SW2*%
X113486000Y-37120000D03*
X106986000Y-37120000D03*
X106986000Y-41620000D03*
X113486000Y-41620000D03*
%TD*%
%TO.C,REF\u002A\u002A*%
X89408000Y-60198000D03*
%TD*%
D11*
%TO.C,R4*%
X120040400Y-46939200D03*
D10*
X127660400Y-46939200D03*
%TD*%
D11*
%TO.C,R1*%
X120040400Y-43484800D03*
D10*
X127660400Y-43484800D03*
%TD*%
D12*
%TO.C,REF\u002A\u002A*%
X89408000Y-30226000D03*
%TD*%
D13*
%TO.C,J1*%
X126502000Y-58674000D03*
D14*
X129042000Y-58674000D03*
X131582000Y-58674000D03*
X134122000Y-58674000D03*
%TD*%
D15*
%TO.C,IC1*%
X132020000Y-34616000D03*
D16*
X129520000Y-34616000D03*
X127020000Y-34616000D03*
X124520000Y-34616000D03*
%TD*%
D11*
%TO.C,R3*%
X90170000Y-53746400D03*
D10*
X90170000Y-46126400D03*
%TD*%
D11*
%TO.C,R2*%
X90220800Y-34950400D03*
D10*
X90220800Y-42570400D03*
%TD*%
D12*
%TO.C,REF\u002A\u002A*%
X134558000Y-48260000D03*
%TD*%
%TO.C,SW4*%
X106986000Y-47026000D03*
X113486000Y-47026000D03*
X106986000Y-51526000D03*
X113486000Y-51526000D03*
%TD*%
D17*
%TO.C,U1*%
X116586000Y-36322000D03*
D18*
X116586000Y-38862000D03*
X116586000Y-41402000D03*
X116586000Y-43942000D03*
X116586000Y-46482000D03*
X116586000Y-49022000D03*
X116586000Y-51562000D03*
X116586000Y-54102000D03*
X93726000Y-54102000D03*
X93726000Y-51562000D03*
X93726000Y-49022000D03*
X93726000Y-46482000D03*
X93726000Y-43942000D03*
X93726000Y-41402000D03*
X93726000Y-38862000D03*
X93726000Y-36322000D03*
%TD*%
M02*
