%TF.GenerationSoftware,KiCad,Pcbnew,(6.0.5)*%
%TF.CreationDate,2022-06-30T14:49:24+05:30*%
%TF.ProjectId,D1 mini 4 button remote,4431206d-696e-4692-9034-20627574746f,rev?*%
%TF.SameCoordinates,Original*%
%TF.FileFunction,Legend,Bot*%
%TF.FilePolarity,Positive*%
%FSLAX46Y46*%
G04 Gerber Fmt 4.6, Leading zero omitted, Abs format (unit mm)*
G04 Created by KiCad (PCBNEW (6.0.5)) date 2022-06-30 14:49:24*
%MOMM*%
%LPD*%
G01*
G04 APERTURE LIST*
%ADD10C,0.150000*%
%ADD11C,0.120000*%
G04 APERTURE END LIST*
D10*
%TO.C,U1*%
X106070304Y-38212780D02*
X106070304Y-39022304D01*
X106022685Y-39117542D01*
X105975066Y-39165161D01*
X105879828Y-39212780D01*
X105689352Y-39212780D01*
X105594114Y-39165161D01*
X105546495Y-39117542D01*
X105498876Y-39022304D01*
X105498876Y-38212780D01*
X104498876Y-39212780D02*
X105070304Y-39212780D01*
X104784590Y-39212780D02*
X104784590Y-38212780D01*
X104879828Y-38355638D01*
X104975066Y-38450876D01*
X105070304Y-38498495D01*
D11*
X115546000Y-55542000D02*
X115546000Y-62442000D01*
X118086000Y-55542000D02*
X118086000Y-30112000D01*
X92226000Y-62442000D02*
X92226000Y-30112000D01*
X118086000Y-55542000D02*
X115546000Y-55542000D01*
X94346000Y-27982000D02*
X115956000Y-27982000D01*
X115546000Y-62442000D02*
X92226000Y-62442000D01*
X94356000Y-27982000D02*
G75*
G03*
X92226000Y-30112000I0J-2130000D01*
G01*
X118086000Y-30112000D02*
G75*
G03*
X115956000Y-27982000I-2130002J-2D01*
G01*
G36*
X119126000Y-36957000D02*
G01*
X118491000Y-36322000D01*
X119126000Y-35687000D01*
X119126000Y-36957000D01*
G37*
D10*
X119126000Y-36957000D02*
X118491000Y-36322000D01*
X119126000Y-35687000D01*
X119126000Y-36957000D01*
%TD*%
M02*
